<svg width="180" height="180" viewBox="0 0 180 180" fill="none" xmlns="http://www.w3.org/2000/svg">
  <style>
    @media (prefers-color-scheme: light) {
      .bg { fill: #171613; }
      .fg { fill: #f6c36a; }
      .line { stroke: #f6c36a; }
    }

    @media (prefers-color-scheme: dark) {
      .bg { fill: #f6c36a; }
      .fg { fill: #171613; }
      .line { stroke: #171613; }
    }
  </style>

  <rect class="bg" x="8" y="8" width="164" height="164" rx="36" />

  <rect class="line" x="40" y="42" width="100" height="100" rx="24" stroke-width="10" />
  <path class="line" d="M40 62H140" stroke-width="10" stroke-linecap="round" />
  <path class="line" d="M68 36V54" stroke-width="10" stroke-linecap="round" />
  <path class="line" d="M112 36V54" stroke-width="10" stroke-linecap="round" />

  <circle class="fg" cx="76" cy="86" r="7" />
  <circle class="fg" cx="104" cy="86" r="7" />
  <path class="fg" d="M72 101H108C112.418 101 116 104.582 116 109V124C116 128.418 112.418 132 108 132H72C67.582 132 64 128.418 64 124V109C64 104.582 67.582 101 72 101Z" />
  <rect class="bg" x="78" y="110" width="10" height="10" rx="5" />
  <rect class="bg" x="92" y="110" width="10" height="10" rx="5" />
</svg>